<svg width="281" height="150" viewBox="0 0 281 150" fill="none" xmlns="http://www.w3.org/2000/svg">
<g clip-path="url(#clip0_597_403)">
<path d="M132.085 0.122496C163.397 -0.785379 196.734 3.43973 226.256 15.5564C246.134 23.7185 275.055 40.8372 280.156 66.6417C286.832 100.425 252.643 122.79 229.865 132.829C178.98 155.273 107.198 155.474 55.8491 134.828C35.3171 126.57 4.78935 108.779 0.533734 81.5955C-4.33853 50.5357 25.3214 29.384 46.4929 19.2315C72.7954 6.62602 103.605 0.943074 132.085 0.122496ZM130.989 6.19827C104.602 7.41168 77.9494 11.6542 53.1922 22.3218C32.7744 31.1212 0.609863 50.9984 5.82471 81.386C10.4534 108.36 44.3232 125.069 64.7867 132.105C113.342 148.787 178.645 148.228 226.386 128.229C244.565 120.617 272.36 104.292 275.428 79.7448C279.242 49.235 245.837 29.6633 225.16 21.2218C201.446 11.5408 175.79 7.22836 150.653 6.3554C150.219 6.33794 149.823 6.13716 149.389 6.12843L130.996 6.19827H130.989Z" fill="white"/>
<path d="M82.6388 66.8856C90.8683 71.9051 91.9417 85.5581 86.1102 93.3972C82.0982 98.7921 77.6295 100.302 71.5848 100.617H41.0038L40.8211 39.4398H71.7675C76.6855 40.3041 82.0297 42.2246 85.1586 46.9123C88.7976 52.3509 87.4958 62.7914 82.6311 66.8856H82.6388ZM67.3977 55.7903H58.5439V61.4471H67.5804C67.824 61.4471 68.8366 60.6789 69.0345 60.3908C70.3439 58.479 69.438 56.122 67.3977 55.7903ZM58.719 83.4455H69.3999C69.4913 83.4455 70.2526 82.8607 70.4124 82.721C71.9046 81.333 72.3157 78.3562 70.7778 76.846C70.4657 76.5405 69.3771 75.9119 69.0345 75.9119H58.719V83.4543V83.4455Z" fill="white"/>
<path d="M142.347 39.4486V56.6283H115.146V60.8185H139.431V77.3698H115.146V82.817H141.981V100.625H97.2479V39.4486H142.347Z" fill="white"/>
<path d="M169.921 39.4486V82.817H192.105L192.379 83.1313V100.625H151.665V39.4486H169.921Z" fill="white"/>
<path d="M217.76 39.4486V82.817H239.944L240.218 83.1313V100.625H199.505V39.4486H217.76Z" fill="white"/>
<path d="M137.969 110.263L140.619 117.596L143.352 110.263H151.665V123.043H146.275L146.001 122.729V115.291L142.819 122.842L138.601 123.052L135.046 115.081V123.043H129.565V110.263H137.969Z" fill="white"/>
<path d="M172.844 110.263V113.615H162.985V115.081H171.931V118.224H162.985V119.691H173.21V122.729L172.935 123.043H157.23L156.956 122.729V110.263H172.844Z" fill="white"/>
<path d="M105.097 110.263V113.615H95.2381V115.081H104.191V118.224H95.2381V119.691H105.28V123.043H89.2163V110.263H105.097Z" fill="white"/>
<path d="M72.5973 110.263V114.662H77.8046L78.0786 114.348V110.263H83.9177V123.043H78.0786V118.015H72.5973V123.043H66.7582V110.263H72.5973Z" fill="white"/>
<path d="M213.558 114.034H207.894C207.894 114.034 207.871 113.667 207.719 113.51C207.201 112.951 206.318 112.794 205.618 112.768C205.024 112.751 203.067 112.864 203.593 113.833C204.27 115.081 212.888 114.566 214.083 117.718C216.047 122.894 206.683 123.444 204.148 123.244C201.613 123.043 197.198 122.214 197.114 118.634H202.869C203.014 118.634 203.204 119.525 203.509 119.787C204.323 120.511 207.262 120.546 208.069 119.787C209.043 118.844 207.475 118.503 206.805 118.32C204.78 117.761 198.652 117.5 197.936 114.881C196.673 110.254 204.529 109.687 206.889 109.844C209.249 110.001 213.17 110.708 213.558 114.034Z" fill="white"/>
<path d="M193.84 110.263V113.615H188.55V123.043H182.794L182.52 122.729V113.615H177.229V110.263H193.84Z" fill="white"/>
<path d="M116.242 110.263V119.376L116.516 119.691H124.639V123.043H110.395V110.263H116.242Z" fill="white"/>
<path d="M253.67 98.8707C248.829 104.143 241.756 95.7891 246.697 90.5601C251.638 85.3311 258.322 93.8075 253.67 98.8707ZM249.674 90.1935C243.637 90.953 246.347 102.136 251.912 98.8532C255.779 96.5661 253.906 89.661 249.674 90.1935Z" fill="white"/>
<path d="M250.899 91.4069C252.917 91.7561 252.719 95.2566 250.625 95.2828L252.452 98.1112C250.602 98.6263 250.648 96.8891 249.529 95.8066V98.1112H248.25V91.4069C249.08 91.5029 250.1 91.2672 250.899 91.4069ZM249.529 94.34C251.668 94.7765 251.699 92.2362 249.529 92.664V94.34Z" fill="white"/>
</g>
<defs>
<clipPath id="clip0_597_403">
<rect width="281" height="150" fill="white"/>
</clipPath>
</defs>
</svg>
