<svg width="243" height="130" viewBox="0 0 243 130" fill="none" xmlns="http://www.w3.org/2000/svg">
<path d="M90.6163 104.478L91.4375 37.8936C92.8116 25.7545 101.674 22.6656 112.976 23.9252C127.944 25.594 126.35 49.2143 131.278 59.813L139.798 31.0979C143.782 21.5584 162.589 21.5744 168.215 28.7552C169.126 29.9185 171.923 35.944 171.923 37.0833V104.478H150.783V59.813C149.604 59.6285 149.677 61.193 149.401 62.0354C145.612 73.4926 144.409 89.0415 139.798 99.6803C136.205 107.984 126.993 108.698 123.554 100.475C119.309 90.3333 117.366 74.4393 114.301 63.2951C114.024 62.2922 113.878 59.821 112.569 59.813V104.478H90.6163Z" fill="white"/>
<path d="M12.0338 92.2348C-25.7167 54.0042 34.0109 -2.64766 71.9403 36.2649C109.057 74.343 49.8575 130.53 12.0338 92.2348ZM39.2145 44.0955C9.69222 47.3048 19.888 93.2858 48.9144 83.1124C71.1679 75.3138 64.3625 41.3676 39.2145 44.0955Z" fill="white"/>
<path d="M242.659 114.844V130H0.366394V116.04L1.58599 114.844H242.659Z" fill="white"/>
<path d="M242.659 0H0.366394V14.3535H242.659V0Z" fill="white"/>
<path d="M203.632 104.478H182.492V48.2516C182.492 47.5134 185.021 40.5493 185.59 39.3217C199.681 8.92982 254.554 25.4576 240.813 63.9851C238.081 71.6472 227.008 80.553 218.674 80.553H204.852L203.632 81.7484V104.478ZM209.95 45.6119C203.77 46.4945 202.941 53.2259 203.99 58.2725L204.965 58.9064C208.836 59.3396 217.259 59.4118 218.722 55.0793C220.649 49.3748 215.673 44.7936 209.95 45.6199V45.6119Z" fill="white"/>
</svg>
