<svg width="907" height="201" viewBox="0 0 907 201" fill="none" xmlns="http://www.w3.org/2000/svg">
<path d="M163.63 62.69C166.28 62.69 167.61 63.83 167.61 66.1C167.61 67.14 167.28 68.28 166.62 69.51L131.13 130.84C130.09 132.73 128.5 134.34 126.37 135.67C124.24 137 122.23 137.66 120.34 137.66H72.64C70.84 137.66 68.88 138.32 66.76 139.65C64.64 140.98 63.05 142.59 62.01 144.48L39.42 183.65C38 186.11 36.49 187.34 34.88 187.34C34.03 187.34 33.32 186.87 32.75 185.92L14.01 153.98C13.35 152.94 13.02 151.61 13.02 150C13.02 147.63 13.59 145.5 14.72 143.61L57.59 69.5C58.63 67.61 60.19 66 62.27 64.67C64.35 63.35 66.34 62.68 68.23 62.68H163.63V62.69ZM114.91 76.3C115.59 75.07 115.93 73.94 115.93 72.9C115.93 70.63 114.65 69.5 112.1 69.5C110.21 69.5 108.19 70.16 106.06 71.49C103.93 72.82 102.34 74.42 101.3 76.32L73.78 124.03C73.01 125.26 72.62 126.39 72.62 127.43C72.62 129.7 73.94 130.83 76.6 130.83C78.49 130.83 80.48 130.17 82.56 128.84C84.64 127.51 86.25 125.91 87.39 124.01L114.9 76.3H114.91Z" fill="white"/>
<path d="M235.04 46.36C235.61 47.31 235.89 48.59 235.89 50.19C235.89 52.56 235.32 54.73 234.19 56.72L191.32 130.83C190.28 132.72 188.69 134.33 186.56 135.66C184.43 136.99 182.46 137.65 180.67 137.65H146.6C143.95 137.65 142.62 136.51 142.62 134.24C142.62 133.2 142.95 132.06 143.61 130.83L186.91 55.87L209.62 16.69C211.04 14.23 212.51 13 214.02 13C214.87 13 215.58 13.43 216.15 14.28L235.03 46.36H235.04Z" fill="white"/>
<path d="M267.29 105.55C265.21 106.87 263.64 108.47 262.6 110.36L254.64 123.94C254.07 125.18 253.78 126.33 253.78 127.38C253.78 129.68 255.06 130.83 257.61 130.83C259.5 130.83 261.51 130.17 263.64 128.84C265.77 127.52 267.35 125.91 268.4 124.01L272.38 117.2C273.42 115.31 275.01 113.7 277.14 112.37C279.27 111.05 281.28 110.38 283.17 110.38H317.24C319.8 110.38 321.07 111.52 321.07 113.79C321.07 114.83 320.74 115.97 320.08 117.2L312.13 130.83C311.09 132.72 309.5 134.33 307.37 135.66C305.24 136.99 303.28 137.65 301.48 137.65H206.08C203.43 137.65 202.1 136.51 202.1 134.24C202.1 133.2 202.43 132.06 203.09 130.83L238.58 69.5C239.62 67.61 241.21 66 243.34 64.67C245.47 63.35 247.48 62.68 249.37 62.68H344.77C347.33 62.68 348.6 63.82 348.6 66.09C348.6 67.13 348.27 68.27 347.6 69.5L331.82 96.76C330.78 98.65 329.19 100.26 327.06 101.59C324.93 102.92 322.91 103.58 321.02 103.58H273.25C271.35 103.58 269.36 104.24 267.28 105.56L267.29 105.55ZM274.35 89.85C273.69 91.1 273.37 92.25 273.37 93.3C273.37 95.6 274.69 96.75 277.35 96.75C279.24 96.75 281.23 96.09 283.31 94.76C285.39 93.44 287 91.83 288.14 89.93L295.95 76.3C296.61 75.07 296.94 73.94 296.94 72.89C296.94 70.62 295.66 69.48 293.1 69.48C291.2 69.48 289.21 70.14 287.12 71.46C285.03 72.78 283.42 74.38 282.28 76.27L274.37 89.84L274.35 89.85Z" fill="white"/>
<path d="M377.14 153.97C376.48 153.02 376.15 151.74 376.15 150.14C376.15 147.77 376.72 145.6 377.85 143.61C378.42 142.66 378.7 141.76 378.7 140.91C378.7 138.73 377.33 137.64 374.58 137.64H326.88C324.23 137.64 322.9 136.5 322.9 134.23C322.9 133.19 323.23 132.05 323.89 130.82L359.38 69.49C360.42 67.6 362.01 65.99 364.14 64.66C366.27 63.34 368.28 62.67 370.17 62.67H404.24C406.8 62.67 408.07 63.81 408.07 66.08C408.07 67.12 407.74 68.26 407.08 69.49L375.56 124.01C374.9 125.24 374.57 126.38 374.57 127.42C374.57 129.69 375.85 130.83 378.4 130.83C380.29 130.83 382.3 130.17 384.42 128.84C386.55 127.51 388.13 125.9 389.17 124.01L420.69 69.49C421.73 67.6 423.32 65.99 425.45 64.67C427.58 63.35 429.59 62.68 431.49 62.68H465.57C468.12 62.68 469.4 63.82 469.4 66.09C469.4 67.13 469.07 68.27 468.41 69.5L402.54 183.64C401.12 186.1 399.61 187.33 398 187.33C397.15 187.33 396.44 186.9 395.87 186.05L377.13 153.97H377.14Z" fill="white"/>
<path d="M598.89 76.31C599.55 75.08 599.88 73.95 599.88 72.9C599.88 70.63 598.6 69.49 596.05 69.49C594.16 69.49 592.18 70.16 590.1 71.48C588.02 72.81 586.42 74.42 585.28 76.32L553.85 130.89C552.81 132.77 551.22 134.36 549.08 135.67C546.95 136.98 544.98 137.64 543.17 137.64H509.02C506.36 137.64 505.04 136.5 505.04 134.23C505.04 133.19 505.37 132.05 506.02 130.82L537.54 76.3C538.21 75.07 538.55 73.94 538.55 72.9C538.55 70.63 537.27 69.5 534.72 69.5C532.83 69.5 530.84 70.16 528.76 71.49C526.68 72.82 525.07 74.42 523.93 76.32L492.41 130.84C491.37 132.73 489.78 134.34 487.65 135.67C485.52 137 483.56 137.66 481.76 137.66H447.69C445.04 137.66 443.71 136.52 443.71 134.25C443.71 133.21 444.04 132.07 444.7 130.84L480.19 69.51C481.23 67.62 482.82 66.01 484.95 64.68C487.08 63.36 489.09 62.69 490.98 62.69H647.71C650.27 62.69 651.54 63.83 651.54 66.1C651.54 67.14 651.21 68.28 650.55 69.51L584.68 183.65C583.26 186.11 581.75 187.34 580.14 187.34C579.29 187.34 578.63 186.87 578.15 185.92L559.27 153.98C558.7 152.94 558.42 151.61 558.42 150C558.42 147.63 558.99 145.5 560.13 143.61L598.88 76.32L598.89 76.31Z" fill="white"/>
<path d="M767.26 62.69C769.81 62.69 771.09 63.83 771.09 66.1C771.09 67.14 770.76 68.28 770.1 69.51L734.61 130.84C733.57 132.73 731.98 134.34 729.85 135.67C727.72 137 725.75 137.66 723.96 137.66H628.56C625.91 137.66 624.59 136.52 624.59 134.25C624.59 133.21 624.92 132.07 625.58 130.84L661.07 69.51C662.11 67.62 663.7 66.01 665.83 64.68C667.96 63.36 669.97 62.69 671.86 62.69H767.26ZM718.43 76.31C719.09 75.08 719.42 73.95 719.42 72.9C719.42 70.63 718.14 69.49 715.59 69.49C713.7 69.49 711.71 70.15 709.64 71.48C707.57 72.81 705.96 74.42 704.82 76.31L677.28 124.01C676.6 125.24 676.27 126.37 676.27 127.41C676.27 129.68 677.55 130.81 680.1 130.81C681.99 130.81 684 130.15 686.13 128.82C688.26 127.5 689.85 125.89 690.89 123.99L718.43 76.29V76.31Z" fill="white"/>
<path d="M889.5 62.69C892.05 62.69 893.33 63.83 893.33 66.1C893.33 67.14 893 68.28 892.34 69.51L856.85 130.84C855.81 132.73 854.22 134.34 852.09 135.67C849.96 137 847.99 137.66 846.2 137.66H750.8C748.15 137.66 746.83 136.52 746.83 134.25C746.83 133.21 747.16 132.07 747.82 130.84L813.83 16.7C815.25 14.24 816.72 13.01 818.23 13.01C819.08 13.01 819.79 13.44 820.36 14.29L839.24 46.37C839.81 47.32 840.09 48.6 840.09 50.2C840.09 52.57 839.52 54.74 838.39 56.73C837.82 57.68 837.54 58.58 837.54 59.43C837.54 61.61 838.96 62.7 841.8 62.7H889.5V62.69ZM840.66 76.31C841.32 75.08 841.65 73.95 841.65 72.9C841.65 70.63 840.37 69.49 837.82 69.49C835.93 69.49 833.94 70.15 831.86 71.48C829.78 72.81 828.17 74.42 827.04 76.31L799.5 124.01C798.82 125.24 798.49 126.37 798.49 127.41C798.49 129.68 799.77 130.81 802.32 130.81C804.21 130.81 806.22 130.15 808.35 128.82C810.48 127.5 812.07 125.89 813.11 123.99L840.65 76.29L840.66 76.31Z" fill="white"/>
<path d="M889.5 52.69V49.69H849.97V52.69L852.95 53C853.04 52.08 853.09 51.14 853.09 50.2C853.09 46.32 852.22 42.74 850.43 39.75V39.77L831.56 7.69C831.44 7.48 831.31 7.27 831.17 7.06C829.7 4.86 827.78 3.09001 825.56 1.87001C823.34 0.65001 820.83 0 818.23 0C815.99 0 813.22 0.469999 810.42 2.03C807.62 3.58 804.87 6.2 802.58 10.19L775.84 56.42L778.44 57.92L780.83 56.11C777.8 52.09 772.86 49.68 767.27 49.7H671.87C667.46 49.7 663.09 51.09 658.97 53.65C658.19 54.13 657.48 54.64 656.81 55.14L658.61 57.54L660.93 55.64C657.87 51.9 653.1 49.69 647.73 49.71H491C486.59 49.71 482.21 51.1 478.09 53.66C477 54.34 475.98 55.08 475.04 55.85L476.94 58.17L479.37 56.41C477.86 54.32 475.85 52.63 473.49 51.47C471.14 50.31 468.44 49.7 465.58 49.7H431.5C427.09 49.7 422.72 51.08 418.6 53.64C417.01 54.63 415.55 55.74 414.23 56.96L416.27 59.16L418.86 57.65C417.43 55.2 415.34 53.19 412.83 51.81C410.32 50.43 407.38 49.69 404.25 49.7H370.18C365.77 49.7 361.39 51.09 357.28 53.65C356.19 54.33 355.17 55.07 354.23 55.84L356.13 58.16L358.56 56.4C357.05 54.31 355.04 52.62 352.68 51.46C350.33 50.3 347.63 49.69 344.77 49.69H249.37C247.93 49.69 246.51 49.85 245.12 50.13L245.71 53.07L248.69 53.43C248.82 52.38 248.89 51.3 248.89 50.2C248.89 46.32 248.02 42.74 246.23 39.75V39.77L227.36 7.69C227.23 7.48 227.1 7.27001 226.97 7.07001C225.5 4.86001 223.58 3.09001 221.36 1.87001C219.14 0.65001 216.63 0 214.02 0C211.78 0 209.01 0.469999 206.21 2.03C203.41 3.58 200.66 6.20001 198.37 10.18L175.65 49.37L171.89 55.88L174.49 57.38L176.77 55.43C173.67 51.8 168.93 49.69 163.62 49.7H68.22C63.77 49.7 59.37 51.11 55.28 53.72C51.44 56.16 48.36 59.34 46.25 63.12L48.87 64.58L46.27 63.08L3.48 137.04L6.08 138.54L3.5 137.01C1.18 140.91 0 145.34 0 149.99C0 153.9 0.95 157.57 2.88 160.71L5.44 159.14L2.85 160.66L21.58 192.59C23.02 195 24.95 196.94 27.23 198.28C29.51 199.62 32.13 200.33 34.85 200.33C36.74 200.33 39.45 199.98 42.34 198.48C45.23 196.99 48.22 194.36 50.65 190.13L73.37 150.73L73.39 150.7L72.34 150.12L73.24 150.92C73.24 150.92 73.31 150.84 73.39 150.69L72.34 150.11L73.24 150.91L73.09 150.78L73.23 150.92L73.08 150.78L73.22 150.92C73.22 150.92 73.43 150.74 73.61 150.64C73.77 150.54 73.88 150.48 73.94 150.45L74.01 150.42L73.89 150.14L74 150.42L73.88 150.14L73.99 150.42L72.89 147.63V150.63H120.29C124.7 150.63 129.08 149.24 133.19 146.68C134.48 145.88 135.67 144.99 136.76 144.05L134.8 141.78L132.31 143.45C133.81 145.68 135.87 147.49 138.31 148.73C140.75 149.97 143.55 150.63 146.55 150.63H180.62C184.96 150.63 189.28 149.24 193.38 146.68C194.48 146 195.5 145.25 196.45 144.47L194.55 142.15L192.12 143.91C193.64 146 195.67 147.7 198.05 148.85C200.42 150.01 203.14 150.62 206.03 150.62H301.43C305.77 150.62 310.09 149.23 314.19 146.67C315.29 145.99 316.31 145.24 317.26 144.46L315.36 142.14L312.93 143.9C314.45 145.99 316.48 147.69 318.86 148.84C321.23 150 323.95 150.61 326.84 150.61H366.23V147.61L363.25 147.3C363.15 148.22 363.11 149.16 363.11 150.1C363.11 154.07 364.09 157.76 366.1 160.86L368.62 159.23L366.03 160.74L384.63 192.59V192.57C384.75 192.8 384.89 193.02 385.03 193.23C386.5 195.43 388.42 197.21 390.64 198.43C392.86 199.65 395.37 200.3 397.98 200.3C399.87 200.3 402.58 199.95 405.47 198.45C408.36 196.96 411.35 194.33 413.78 190.1L439.86 144.91L437.26 143.41L435.09 145.48C438.18 148.72 442.66 150.61 447.66 150.6H481.73C486.07 150.6 490.39 149.21 494.49 146.65C496.09 145.66 497.56 144.54 498.88 143.3L496.83 141.11L494.24 142.63C495.69 145.09 497.79 147.11 500.33 148.48C502.87 149.86 505.83 150.6 508.99 150.6H543.14C545.26 150.6 547.38 150.27 549.47 149.63L548.6 146.76L545.63 146.36C545.47 147.54 545.39 148.74 545.39 149.95C545.39 153.66 546.18 157.13 547.82 160.14C547.89 160.27 547.97 160.4 548.05 160.55L566.8 192.28L569.38 190.75L566.74 192.18C568.09 194.67 570.01 196.72 572.31 198.12C574.61 199.53 577.3 200.29 580.1 200.29C581.99 200.29 584.7 199.94 587.59 198.44C590.48 196.95 593.47 194.32 595.9 190.09L621.52 145.69L618.92 144.19L616.95 146.45C619.97 149.09 624.02 150.6 628.51 150.6H723.91C728.25 150.6 732.57 149.21 736.67 146.65C738.15 145.73 739.52 144.7 740.76 143.58L738.75 141.36L736.2 142.94C737.67 145.31 739.75 147.25 742.25 148.57C744.74 149.9 747.64 150.61 750.74 150.61H846.14C850.48 150.61 854.8 149.22 858.9 146.66C862.83 144.22 865.98 141.01 868.11 137.19L865.49 135.73L868.09 137.23L903.56 75.94L903.54 75.97C903.6 75.86 903.67 75.74 903.74 75.62C905.39 72.56 906.29 69.32 906.29 66.06C906.3 61.43 904.52 57.23 901.47 54.29C898.43 51.33 894.17 49.65 889.46 49.65V55.65C892.77 55.65 895.42 56.79 897.29 58.59C899.15 60.41 900.28 62.92 900.29 66.05C900.29 68.21 899.71 70.44 898.46 72.77L898.35 72.96L862.89 134.22V134.24C861.26 137.13 858.91 139.57 855.74 141.54C852.39 143.62 849.19 144.58 846.15 144.58H750.75C748.56 144.58 746.65 144.08 745.07 143.24C743.48 142.4 742.22 141.21 741.31 139.75L739.41 136.69L736.74 139.11C735.77 139.98 734.7 140.8 733.5 141.54C730.15 143.62 726.95 144.58 723.91 144.58H628.51C625.35 144.58 622.78 143.55 620.9 141.92L618.15 139.52L590.7 187.08C588.76 190.42 586.69 192.13 584.83 193.1C582.97 194.06 581.26 194.27 580.1 194.27C578.38 194.27 576.81 193.81 575.44 192.98C574.07 192.14 572.89 190.91 572.02 189.3L571.99 189.25L553.2 157.47L553.08 157.25C551.98 155.22 551.38 152.8 551.38 149.93C551.38 148.98 551.44 148.05 551.56 147.14L552.19 142.51L547.72 143.87C546.15 144.35 544.63 144.58 543.14 144.58H508.99C506.75 144.58 504.8 144.06 503.19 143.19C501.58 142.31 500.31 141.08 499.41 139.57L497.51 136.35L494.77 138.9C493.74 139.86 492.59 140.74 491.3 141.54C487.95 143.62 484.76 144.58 481.71 144.58H447.64C444.11 144.58 441.32 143.31 439.41 141.31L436.64 138.41L408.56 187.07C406.62 190.41 404.55 192.12 402.69 193.09C400.83 194.05 399.12 194.26 397.96 194.26C396.35 194.26 394.85 193.87 393.51 193.13C392.17 192.39 390.97 191.3 390.01 189.87C389.93 189.75 389.86 189.63 389.79 189.52L371.16 157.63L371.12 157.57C369.8 155.53 369.1 153.09 369.09 150.07C369.09 149.33 369.13 148.6 369.2 147.89L369.54 144.58H326.82C324.78 144.58 322.99 144.15 321.47 143.41C319.95 142.67 318.71 141.63 317.77 140.34L315.9 137.77L313.44 139.79C312.67 140.42 311.87 141 311 141.54C307.65 143.62 304.45 144.58 301.41 144.58H206.01C203.97 144.58 202.18 144.15 200.66 143.41C199.14 142.67 197.9 141.63 196.96 140.34L195.09 137.77L192.63 139.79C191.86 140.42 191.06 141 190.19 141.54C186.84 143.62 183.64 144.58 180.6 144.58H146.53C144.42 144.58 142.56 144.12 141.01 143.33C139.46 142.54 138.2 141.43 137.27 140.06L135.39 137.26L132.83 139.46C131.96 140.21 131.02 140.91 130 141.54C126.66 143.61 123.42 144.58 120.27 144.58H72.3L71.77 144.79C71.43 144.92 70.98 145.14 70.39 145.51C70.08 145.7 69.72 145.95 69.32 146.28C68.93 146.62 68.49 147.03 68.07 147.76L70.7 149.2L68.1 147.7L45.4 187.07C43.46 190.41 41.38 192.12 39.53 193.09C37.67 194.05 35.96 194.26 34.8 194.26C33.12 194.26 31.58 193.83 30.21 193.03C28.84 192.23 27.63 191.04 26.67 189.44L24.1 190.98L26.69 189.46L7.95 157.51L7.93 157.48C6.63 155.36 5.95 152.88 5.94 149.9C5.94 146.24 6.84 142.96 8.6 139.98V139.96L51.42 65.96V65.94C53.03 63.08 55.35 60.65 58.44 58.68C61.75 56.58 64.98 55.6 68.16 55.6H163.56C167.32 55.61 170.25 57.03 172.15 59.24L174.91 62.46L180.79 52.29L203.52 13.09C205.37 9.91001 207.31 8.18 209.08 7.19C210.86 6.2 212.54 5.92 213.97 5.92C215.58 5.92 217.08 6.31 218.42 7.05C219.76 7.79 220.96 8.88 221.92 10.31C221.99 10.42 222.06 10.53 222.13 10.64L241.02 42.74C242.16 44.66 242.82 47.12 242.83 50.11C242.83 50.96 242.78 51.79 242.68 52.63L242.19 56.74L246.25 55.93C247.3 55.72 248.33 55.61 249.32 55.61H344.72C346.73 55.61 348.49 56.04 349.99 56.77C351.49 57.5 352.71 58.54 353.64 59.83L355.51 62.41L357.98 60.39C358.74 59.77 359.54 59.19 360.4 58.65C363.75 56.57 366.99 55.61 370.14 55.6H404.21C406.41 55.6 408.33 56.11 409.91 56.98C411.49 57.85 412.75 59.07 413.64 60.58L415.53 63.81L418.27 61.26C419.29 60.31 420.44 59.44 421.72 58.64C425.07 56.56 428.31 55.6 431.45 55.6H465.53C467.54 55.6 469.3 56.03 470.8 56.76C472.3 57.49 473.52 58.53 474.45 59.82L476.32 62.41L478.79 60.39C479.55 59.77 480.35 59.19 481.21 58.65C484.56 56.57 487.8 55.61 490.95 55.6H647.68C651.44 55.61 654.36 57.07 656.24 59.34L658.07 61.56L660.37 59.83C660.94 59.4 661.51 59 662.09 58.64C665.44 56.56 668.68 55.6 671.82 55.59H767.22C771.14 55.6 774.13 57.18 776 59.63L778.73 63.23L807.73 13.1C809.58 9.90001 811.52 8.18 813.3 7.19C815.08 6.2 816.76 5.92 818.19 5.92C819.8 5.92 821.29 6.31 822.64 7.05C823.98 7.79 825.18 8.87 826.14 10.31C826.21 10.41 826.28 10.52 826.35 10.64L845.24 42.74C846.38 44.64 847.05 47.11 847.05 50.1C847.05 50.84 847.01 51.57 846.94 52.29L846.6 55.6H889.45V52.6L889.5 52.69Z" fill="#444444"/>
</svg>
